<svg xmlns="http://www.w3.org/2000/svg" xmlns:xlink="http://www.w3.org/1999/xlink" viewBox="0 0 135.65 135.65"><defs><style>.cls-1,.cls-2{stroke:#ec1c24;stroke-miterlimit:10;}.cls-2{fill:none;stroke-width:4px;}.cls-3{fill:url(#linear-gradient);}.cls-4{fill:url(#linear-gradient-2);}.cls-5{fill:url(#linear-gradient-3);}.cls-6{fill:url(#linear-gradient-4);}.cls-7{fill:url(#linear-gradient-5);}.cls-8{fill:url(#linear-gradient-6);}.cls-9{fill:url(#linear-gradient-7);}.cls-10{fill:url(#linear-gradient-8);}.cls-11{fill:url(#linear-gradient-9);}.cls-12{fill:url(#linear-gradient-10);}.cls-13{fill:url(#linear-gradient-11);}.cls-14{fill:url(#linear-gradient-12);}.cls-15{fill:url(#linear-gradient-13);}.cls-16{fill:url(#linear-gradient-14);}.cls-17{fill:url(#linear-gradient-15);}.cls-18{fill:url(#linear-gradient-16);}.cls-19{fill:#ec1c24;}</style><linearGradient id="linear-gradient" x1="112.33" y1="-13.34" x2="112.67" y2="155.65" gradientUnits="userSpaceOnUse"><stop offset="0" stop-color="#b27f2b"/><stop offset="0.15" stop-color="#b27f2b"/><stop offset="0.45" stop-color="#e0bf61"/><stop offset="0.61" stop-color="#f7de7c"/><stop offset="0.72" stop-color="#fff3a5"/><stop offset="0.84" stop-color="#f7de7c"/><stop offset="1" stop-color="#b27f2b"/></linearGradient><linearGradient id="linear-gradient-2" x1="120.17" y1="-13.35" x2="120.51" y2="155.63" xlink:href="#linear-gradient"/><linearGradient id="linear-gradient-3" x1="125.25" y1="-13.36" x2="125.59" y2="155.62" xlink:href="#linear-gradient"/><linearGradient id="linear-gradient-4" x1="126.41" y1="-13.37" x2="126.75" y2="155.62" xlink:href="#linear-gradient"/><linearGradient id="linear-gradient-5" x1="122.9" y1="-13.36" x2="123.23" y2="155.63" xlink:href="#linear-gradient"/><linearGradient id="linear-gradient-6" x1="115.49" y1="-13.34" x2="115.83" y2="155.64" xlink:href="#linear-gradient"/><linearGradient id="linear-gradient-7" x1="105.39" y1="-13.32" x2="105.73" y2="155.66" xlink:href="#linear-gradient"/><linearGradient id="linear-gradient-8" x1="95.22" y1="-13.3" x2="95.56" y2="155.68" xlink:href="#linear-gradient"/><linearGradient id="linear-gradient-9" x1="22.97" y1="-13.16" x2="23.3" y2="155.83" xlink:href="#linear-gradient"/><linearGradient id="linear-gradient-10" x1="15.24" y1="-13.14" x2="15.58" y2="155.84" xlink:href="#linear-gradient"/><linearGradient id="linear-gradient-11" x1="10.26" y1="-13.13" x2="10.59" y2="155.85" xlink:href="#linear-gradient"/><linearGradient id="linear-gradient-12" x1="9.14" y1="-13.13" x2="9.48" y2="155.86" xlink:href="#linear-gradient"/><linearGradient id="linear-gradient-13" x1="12.66" y1="-13.14" x2="12.99" y2="155.85" xlink:href="#linear-gradient"/><linearGradient id="linear-gradient-14" x1="20" y1="-13.15" x2="20.34" y2="155.83" xlink:href="#linear-gradient"/><linearGradient id="linear-gradient-15" x1="30" y1="-13.17" x2="30.34" y2="155.81" xlink:href="#linear-gradient"/><linearGradient id="linear-gradient-16" x1="40.5" y1="-13.19" x2="40.84" y2="155.79" xlink:href="#linear-gradient"/></defs><g id="Layer_2" data-name="Layer 2"><g id="Layer_1-2" data-name="Layer 1"><circle class="cls-1" cx="67.83" cy="67.83" r="49.46"/><path d="M33.12,114.43l-1.76,2,4.54,3.5a.43.43,0,0,0,.3.11.81.81,0,0,0,.37-.16l.17.13-1.66,1.85-.17-.12a.62.62,0,0,0,.1-.37.37.37,0,0,0-.17-.26l-6.41-4.93.15-.17A.74.74,0,0,0,29,116a.58.58,0,0,0,.29-.19l5.43-6.08a.47.47,0,0,0,.15-.3.58.58,0,0,0-.14-.34l.15-.16,6.29,4.83a.42.42,0,0,0,.3.11.71.71,0,0,0,.37-.16l.17.13-1.66,1.86-.17-.13a.65.65,0,0,0,.1-.36.39.39,0,0,0-.17-.26l-4.41-3.4-1.53,1.71,2.87,2.2a.42.42,0,0,0,.3.11.86.86,0,0,0,.37-.16l.17.13-1.63,1.81-.16-.13a.86.86,0,0,0,.1-.36.41.41,0,0,0-.17-.26Z"/><path d="M45.84,121.27l.78,4.39a5.42,5.42,0,0,0,.22,1,1.09,1.09,0,0,0,.39.42l-.1.2-3.27-1.48.1-.2c.27.06.45,0,.53-.16a.88.88,0,0,0,0-.51L44,122.15l-2.58,1.26a1.23,1.23,0,0,0-.49.35c-.11.2,0,.38.23.53l-.11.19-3.16-1.43.1-.2a1,1,0,0,0,.52,0,8.18,8.18,0,0,0,1-.45l4.19-2L43,116.29a5.06,5.06,0,0,0-.22-1,.93.93,0,0,0-.39-.37l.09-.2,3.31,1.5-.11.19c-.27,0-.46,0-.55.22a1,1,0,0,0,0,.6l.39,2.26,2.21-1.08a1.54,1.54,0,0,0,.57-.39c.09-.18,0-.36-.24-.53l.1-.2,3.22,1.46-.1.2a.92.92,0,0,0-.49-.06,8.77,8.77,0,0,0-1,.45Z"/><path d="M53.43,125l-.75,3a.45.45,0,0,0,0,.33.62.62,0,0,0,.28.24l0,.22-2.79-.61.06-.21a.78.78,0,0,0,.37-.1.55.55,0,0,0,.17-.29l1.94-7.7a.45.45,0,0,0,0-.33.63.63,0,0,0-.28-.24l.05-.22L58,120.25a7.28,7.28,0,0,1,1.52.47,2.54,2.54,0,0,1,.89.68,2.13,2.13,0,0,1,.48,1,3.1,3.1,0,0,1-.94,2.78,2.43,2.43,0,0,1-1.32.6,5.88,5.88,0,0,1-2-.17Zm.38-1.5,3,.64a2.91,2.91,0,0,0,1.3.08,1,1,0,0,0,.47-.32,1.46,1.46,0,0,0,.3-.58,1.49,1.49,0,0,0,0-.63.94.94,0,0,0-.27-.49,2.81,2.81,0,0,0-1.2-.46l-3-.65Z"/><path d="M65.13,126.67l0,3.1a.48.48,0,0,0,.09.31.65.65,0,0,0,.33.18v.22l-2.86,0v-.22a.61.61,0,0,0,.34-.18.52.52,0,0,0,.1-.31l.06-7.9a.49.49,0,0,0-.09-.32.61.61,0,0,0-.34-.18v-.22l5.73,0a8.9,8.9,0,0,1,1.66.13,2.94,2.94,0,0,1,1.07.44,2.14,2.14,0,0,1,.78,1,3,3,0,0,1,.24,1.26,2.52,2.52,0,0,1-2.51,2.65l1.76,2.59a5.18,5.18,0,0,0,.68.88.82.82,0,0,0,.53.22v.22l-3.31,0v-.22c.23,0,.34-.12.34-.25a1.68,1.68,0,0,0-.31-.59l-1.83-2.77Zm0-1.54,3.09,0c.46,0,.78,0,1,0a1.52,1.52,0,0,0,.52-.17,1.06,1.06,0,0,0,.52-1,1.05,1.05,0,0,0-.5-1,1.24,1.24,0,0,0-.52-.18,8.57,8.57,0,0,0-1,0l-3.09,0Z"/><path d="M77.46,125.66l.56,2.51,5.77-1.12a.38.38,0,0,0,.28-.15.66.66,0,0,0,.1-.37l.21,0,.53,2.37-.21,0a.6.6,0,0,0-.25-.3.42.42,0,0,0-.32,0L76,130.13l0-.21a.74.74,0,0,0,.29-.24.5.5,0,0,0,0-.33l-1.73-7.73a.54.54,0,0,0-.16-.3.68.68,0,0,0-.37-.11l0-.22,8-1.54a.41.41,0,0,0,.28-.15.69.69,0,0,0,.09-.37l.22,0,.52,2.37-.21,0a.78.78,0,0,0-.24-.3.44.44,0,0,0-.33,0L76.65,122l.48,2.17,3.65-.7a.5.5,0,0,0,.28-.15.69.69,0,0,0,.09-.37l.22,0,.51,2.31-.21,0a.78.78,0,0,0-.24-.3.51.51,0,0,0-.33,0Z"/><path d="M92.38,116.4l-.06,2.42-.22,0,0-.1c-.07-.14-.26-.25-.58-.31a4.79,4.79,0,0,0-2.93.25,3.94,3.94,0,0,0-1.08.63,1.35,1.35,0,0,0-.41.61.79.79,0,0,0,.91,1.06,8.66,8.66,0,0,0,1.35-.32l1-.29a8.84,8.84,0,0,1,1.51-.3,3.68,3.68,0,0,1,1.16.08,2.48,2.48,0,0,1,1,.54,2.79,2.79,0,0,1,.75,1,2.64,2.64,0,0,1,.17,1.83A3,3,0,0,1,93.8,125a6.32,6.32,0,0,1-1.63.94,8.24,8.24,0,0,1-3.68.51,1.76,1.76,0,0,0-.49,0s-.11.1-.19.24l-.22,0-.07-2.47h.22l0,.08a.84.84,0,0,0,.51.42,3.89,3.89,0,0,0,1.53.13,5.81,5.81,0,0,0,1.71-.38,3.28,3.28,0,0,0,1.27-.84,1.37,1.37,0,0,0,.32-.62,1.07,1.07,0,0,0-.06-.62.76.76,0,0,0-.74-.43,6.73,6.73,0,0,0-1.38.28l-1,.28a12.53,12.53,0,0,1-1.44.35,3.5,3.5,0,0,1-.92,0,2.45,2.45,0,0,1-1.28-.5,2.76,2.76,0,0,1-.84-1.05,2.55,2.55,0,0,1-.1-2.09,4,4,0,0,1,2.45-2.09,6.94,6.94,0,0,1,1.58-.44,12,12,0,0,1,2-.08,2.25,2.25,0,0,0,.51,0,.58.58,0,0,0,.23-.27Z"/><path d="M100.77,111.07l.47,2.38H101a.35.35,0,0,0-.06-.09.81.81,0,0,0-.63-.2,4.82,4.82,0,0,0-2.82.81,3.94,3.94,0,0,0-.92.82,1.4,1.4,0,0,0-.26.68.82.82,0,0,0,.17.61.8.8,0,0,0,1,.26,10,10,0,0,0,1.26-.58l.93-.47a8.12,8.12,0,0,1,1.41-.59,3.58,3.58,0,0,1,1.16-.14,2.66,2.66,0,0,1,1.13.33,3,3,0,0,1,1,.81,2.7,2.7,0,0,1,.57,1.77,3,3,0,0,1-.79,1.78,6.15,6.15,0,0,1-1.39,1.22,7.88,7.88,0,0,1-3.49,1.2,2.8,2.8,0,0,0-.48.09.66.66,0,0,0-.13.27l-.22,0-.61-2.41.22,0,0,.07a.85.85,0,0,0,.59.31,3.85,3.85,0,0,0,1.53-.17,5.78,5.78,0,0,0,1.59-.69,3,3,0,0,0,1-1.07,1.35,1.35,0,0,0,.18-.67,1,1,0,0,0-.2-.59.77.77,0,0,0-.81-.28,6.61,6.61,0,0,0-1.29.54l-.91.46c-.61.31-1.06.52-1.33.62a4.22,4.22,0,0,1-.9.2,2.51,2.51,0,0,1-1.36-.24,2.88,2.88,0,0,1-1-.87,2.56,2.56,0,0,1-.56-2,3.84,3.84,0,0,1,1.93-2.51,6.37,6.37,0,0,1,1.45-.73,12.61,12.61,0,0,1,2-.47,1.56,1.56,0,0,0,.49-.13.44.44,0,0,0,.17-.3Z"/><path d="M49.78,18.12l-2.15-6.87a.47.47,0,0,0-.17-.26.67.67,0,0,0-.35-.06l-.06-.19,4.54-1.42A6.31,6.31,0,0,1,54,9a3.41,3.41,0,0,1,2.2,1.1A5,5,0,0,1,57.27,12,4.17,4.17,0,0,1,57,15.61a3.46,3.46,0,0,1-1.06,1.06,7.23,7.23,0,0,1-1.79.78l-4.54,1.42-.06-.19a.65.65,0,0,0,.25-.25A.41.41,0,0,0,49.78,18.12Zm1.55-1.27,2.23-.69a3.57,3.57,0,0,0,1.51-.8,2.61,2.61,0,0,0,.39-2.79,3,3,0,0,0-1.25-1.81,1.88,1.88,0,0,0-1-.29,4.27,4.27,0,0,0-1.35.24l-2.23.7Z"/><path d="M61.34,12l.22,2.33L67,13.84a.45.45,0,0,0,.28-.11.73.73,0,0,0,.13-.33l.2,0,.2,2.2h-.19a.69.69,0,0,0-.19-.29.46.46,0,0,0-.3-.06l-7.7.73,0-.2a.74.74,0,0,0,.3-.19.48.48,0,0,0,.06-.3L59.1,8.1A.39.39,0,0,0,59,7.82a.56.56,0,0,0-.32-.13l0-.2,7.55-.72a.43.43,0,0,0,.28-.11.68.68,0,0,0,.13-.33h.2L67,8.51l-.2,0a.74.74,0,0,0-.19-.3.45.45,0,0,0-.3-.06l-5.3.5.19,2,3.44-.32a.43.43,0,0,0,.28-.11.73.73,0,0,0,.13-.33l.2,0,.2,2.15h-.2a.66.66,0,0,0-.19-.29.43.43,0,0,0-.29-.06Z"/><path d="M77.36,8.24l-1.21,1.9L76,10s0-.07,0-.1-.1-.3-.32-.48a4.46,4.46,0,0,0-2.52-1A3.77,3.77,0,0,0,72,8.46a1.44,1.44,0,0,0-.63.31.82.82,0,0,0-.28.52c0,.32.14.55.52.71a10.11,10.11,0,0,0,1.26.31l1,.19a7.47,7.47,0,0,1,1.39.4,3.22,3.22,0,0,1,.9.54,2,2,0,0,1,.59.87,2.34,2.34,0,0,1,.14,1.08,2.45,2.45,0,0,1-.73,1.54,3.17,3.17,0,0,1-1.71.77,6.56,6.56,0,0,1-1.78.06,7.63,7.63,0,0,1-3.25-1.13,2.8,2.8,0,0,0-.39-.21.58.58,0,0,0-.27.12l-.17-.12,1.12-2,.17.11v.08a.68.68,0,0,0,.22.54,3.3,3.3,0,0,0,1.19.75,5.71,5.71,0,0,0,1.57.41,3.17,3.17,0,0,0,1.44-.14,1.36,1.36,0,0,0,.56-.36A.92.92,0,0,0,75,13.3a.61.61,0,0,0-.39-.64,7,7,0,0,0-1.26-.36l-1-.19c-.63-.13-1.08-.24-1.34-.32a3.55,3.55,0,0,1-.76-.37,2,2,0,0,1-.81-.93,2.28,2.28,0,0,1-.18-1.18,2.32,2.32,0,0,1,.92-1.7,4,4,0,0,1,3-.64,6.23,6.23,0,0,1,1.5.31,11.13,11.13,0,0,1,1.69.78,2.36,2.36,0,0,0,.43.19.49.49,0,0,0,.32-.12Z"/><path d="M83.71,15.76,80,14.66l-.89,1a1.06,1.06,0,0,0-.23.34c0,.17.05.34.3.48l-.06.19-2.7-.8.06-.19a.76.76,0,0,0,.41-.06,1.61,1.61,0,0,0,.43-.38l4.86-5.38a1.26,1.26,0,0,0,.29-.44.45.45,0,0,0-.23-.5l.06-.19,2.89.86-.06.19c-.25,0-.4.09-.45.25a.87.87,0,0,0,0,.43l1.24,7.22a2.23,2.23,0,0,0,.19.65.8.8,0,0,0,.34.31l-.06.19-3-.89.05-.19c.28,0,.45,0,.51-.26a.9.9,0,0,0,0-.4Zm-.18-1.27-.46-3.3L80.86,13.7Z"/><circle class="cls-2" cx="67.83" cy="67.83" r="65.83"/><polygon class="cls-3" points="115.82 106.08 112.75 104.12 109.92 106.45 110.85 102.91 107.78 100.95 111.43 100.72 112.37 97.18 113.69 100.58 117.34 100.35 114.5 102.68 115.82 106.08"/><polygon class="cls-4" points="124.96 93.21 121.46 92.17 119.37 95.19 119.3 91.53 115.81 90.5 119.26 89.27 119.19 85.62 121.39 88.52 124.85 87.29 122.76 90.31 124.96 93.21"/><polygon class="cls-5" points="130.22 78.34 126.56 78.31 125.38 81.78 124.31 78.29 120.65 78.26 123.64 76.14 122.56 72.65 125.49 74.82 128.48 72.7 127.3 76.17 130.22 78.34"/><polygon class="cls-6" points="131.19 62.63 127.66 63.6 127.47 67.26 125.47 64.21 121.95 65.19 124.24 62.33 122.24 59.28 125.66 60.56 127.95 57.7 127.77 61.35 131.19 62.63"/><polygon class="cls-7" points="127.78 47.29 124.66 49.2 125.49 52.76 122.72 50.38 119.59 52.3 121.01 48.92 118.25 46.55 121.89 46.83 123.31 43.45 124.14 47.01 127.78 47.29"/><polygon class="cls-8" points="120.28 33.52 117.8 36.22 119.58 39.4 116.26 37.88 113.77 40.58 114.21 36.95 110.89 35.44 114.48 34.7 114.92 31.07 116.7 34.25 120.28 33.52"/><polygon class="cls-9" points="109.26 22.38 107.61 25.65 110.2 28.21 106.59 27.67 104.93 30.95 104.35 27.34 100.74 26.8 104 25.11 103.42 21.51 106.01 24.07 109.26 22.38"/><polygon class="cls-10" points="99.08 13.71 97.43 16.98 100.02 19.54 96.4 19.01 94.75 22.28 94.17 18.68 90.56 18.14 93.81 16.45 93.23 12.84 95.83 15.4 99.08 13.71"/><polygon class="cls-11" points="19.98 105.45 23.01 103.48 25.82 105.76 24.88 102.27 27.91 100.31 24.3 100.11 23.37 96.63 22.08 100 18.47 99.81 21.28 102.08 19.98 105.45"/><polygon class="cls-12" points="10.93 92.81 14.38 91.76 16.45 94.72 16.52 91.11 19.97 90.05 16.56 88.88 16.62 85.27 14.45 88.15 11.04 86.97 13.1 89.93 10.93 92.81"/><polygon class="cls-13" points="5.71 78.17 9.32 78.11 10.5 81.53 11.55 78.07 15.16 78.01 12.21 75.94 13.27 72.49 10.38 74.66 7.42 72.59 8.6 76 5.71 78.17"/><polygon class="cls-14" points="4.73 62.66 8.22 63.6 8.41 67.2 10.38 64.18 13.86 65.11 11.59 62.3 13.56 59.28 10.19 60.57 7.92 57.76 8.11 61.37 4.73 62.66"/><polygon class="cls-15" points="8.07 47.48 11.16 49.34 10.35 52.86 13.07 50.49 16.17 52.35 14.76 49.03 17.49 46.66 13.89 46.97 12.48 43.65 11.66 47.17 8.07 47.48"/><polygon class="cls-16" points="15.46 33.81 17.92 36.45 16.17 39.61 19.44 38.08 21.9 40.72 21.46 37.14 24.74 35.62 21.19 34.92 20.75 31.34 19 34.5 15.46 33.81"/><polygon class="cls-17" points="26.33 22.7 27.97 25.92 25.41 28.47 28.98 27.91 30.62 31.13 31.18 27.56 34.75 27 31.53 25.35 32.1 21.79 29.55 24.34 26.33 22.7"/><polygon class="cls-18" points="36.81 14.24 38.45 17.46 35.9 20.02 39.47 19.45 41.1 22.67 41.67 19.1 45.24 18.54 42.02 16.9 42.59 13.33 40.03 15.89 36.81 14.24"/><path class="cls-19" d="M102,70.72c-1.21,2.37-2.31,4.68-4.23,6.27-.89.74-2.39.87-3.64,1a45.1,45.1,0,0,1-15.53-.92,30,30,0,0,1-8.74-3.5,20.24,20.24,0,0,1-10.11-15.8,41,41,0,0,1-.06-7.35c.17-2.46.49-4.9-.64-7.55h5.62c3,0,6-.09,8.91.1s4.6,1.86,4.93,4.91a9,9,0,0,1-.91,4.72l-2.07-1.06A3.64,3.64,0,0,0,70,54.45c-.36,2.84.94,5,3.05,6.69a12.47,12.47,0,0,0,7,2.43c7.42.65,14.34-1.15,21-4.29,1.64-.78,3.26-1.62,4.88-2.44l.37.22c-.53,2.42-1,4.86-1.66,7.23-.17.6-1,1.13-1.67,1.44a33.79,33.79,0,0,1-9,2.41,52,52,0,0,1-12.4.56,25.38,25.38,0,0,1-8.85-2.12C66.93,63.9,64.05,59.32,63.79,53a20.79,20.79,0,0,0-.31-2.22H63a5.78,5.78,0,0,0-.4,1.17c-.63,4.95,0,9.61,3.26,13.63a17,17,0,0,0,8.15,5.34c5.62,1.92,11.4,1.91,17.18,1.36C94.75,72,98.24,71.28,102,70.72ZM68.43,45.51l-.12.55,7.61,3.14c.25-1.91-.09-2.82-1.37-3.34C72.55,45,70.47,45.46,68.43,45.51Z"/><path class="cls-19" d="M92.17,82.53c-4.4,4.25-9.28,6-15.15,4.26A35.15,35.15,0,0,1,61.45,77a27.8,27.8,0,0,1-7.58-13.89c-.2-1-.29-2-.42-3-2.68-.5-5.33-.9-7.93-1.5-5.24-1.2-10-3.69-14.67-6.18a1.4,1.4,0,0,1-.51-1.16c.37-2.79.83-5.57,1.27-8.35a11.4,11.4,0,0,1,.33-1.25c1.08.89,2.07,1.68,3,2.5A63.53,63.53,0,0,0,53,55.69a2.16,2.16,0,0,0,.51.2c2.24.25,2.86,1.71,3.12,3.72a23.12,23.12,0,0,0,8.58,15,31.79,31.79,0,0,0,21.32,7.89C88.33,82.51,90.15,82.53,92.17,82.53Z"/><path class="cls-19" d="M104.55,41.75a25.45,25.45,0,0,1,1.64,9.83,1.36,1.36,0,0,1-.62.92c-7.19,4.29-14.84,7.21-23.3,7.51a20.79,20.79,0,0,1-4.87-.68,10.77,10.77,0,0,1-2.27-1.08c1.76-.6,3.37-1,4.89-1.68C86.16,54,91.74,50.35,97.29,46.7,99.67,45.13,102,43.49,104.55,41.75Z"/><path class="cls-19" d="M30.34,56.86C32.74,58,34.8,59,36.91,60A42.66,42.66,0,0,0,49.5,63.42a1.18,1.18,0,0,1,1.19,1c.39,1.45.89,2.87,1.42,4.54-2-.12-3.81-.11-5.6-.36-3.15-.43-6.29-1-9.42-1.57a16.11,16.11,0,0,1-2.91-1,4,4,0,0,1-2.76-3.28C31.13,60.88,30.74,59,30.34,56.86Z"/><path class="cls-19" d="M58.06,101.28c5.38-.47,9-2.61,10-7.9,2.57,6.07,2.89,6.33,10,8a15,15,0,0,1-1.37,1.86c-4.32,4.24-12.64,4.33-17,.19A17.91,17.91,0,0,1,58.06,101.28Z"/><path class="cls-19" d="M34.7,70.49c1.64.31,3.29.58,4.92,1a45.64,45.64,0,0,0,10.67,1.13c1.13,0,2.27,0,3.4,0a1,1,0,0,1,.74.33c.84,1.36,1.63,2.75,2.58,4.37-1.29.25-2.33.54-3.4.66a41.13,41.13,0,0,1-13.69-.4,3.1,3.1,0,0,1-1.64-1.12c-1.34-1.81-2.58-3.69-3.86-5.55Z"/><path class="cls-19" d="M64.53,84.66a19.08,19.08,0,0,1-11.4,2.69c-3.49-.21-6-2.59-8.65-4.65.2-.13.26-.2.31-.2A54,54,0,0,0,59,81.13,2.63,2.63,0,0,1,61.8,82C62.58,82.9,63.52,83.68,64.53,84.66Z"/><path class="cls-19" d="M69.29,87.52l6.82,2.39a1.72,1.72,0,0,1,.64.41c2.12,2.37,4.22,4.75,6.5,7.33-3.73-.12-7.19-.26-10.14-2.45C70.58,93.31,69.71,90.55,69.29,87.52Z"/><path class="cls-19" d="M53.18,97.54l5.88-7a1.52,1.52,0,0,1,.6-.47c2.31-.8,4.63-1.58,6.94-2.37C67.5,93.37,60.57,98.47,53.18,97.54Z"/></g></g></svg>